HIERARCHY
ROOT Hips
{
	OFFSET 15.585500 22.159004 44.358299
	CHANNELS 6 Xposition Yposition Zposition Zrotation Xrotation Yrotation
	JOINT Chest
	{
		OFFSET -0.128500 0.160400 6.566002
		CHANNELS 6 Xposition Yposition Zposition Zrotation Xrotation Yrotation
		JOINT Chest2
		{
			OFFSET 0.000000 0.000000 3.554802
			CHANNELS 6 Xposition Yposition Zposition Zrotation Xrotation Yrotation
			JOINT Neck
			{
				OFFSET 0.000000 0.000000 8.267998
				CHANNELS 6 Xposition Yposition Zposition Zrotation Xrotation Yrotation
				JOINT Head
				{
					OFFSET 0.000000 0.000002 2.173897
					CHANNELS 6 Xposition Yposition Zposition Zrotation Xrotation Yrotation
					End Site
					{
						OFFSET 0.000000 0.000000 7.718697
					}
				}
			}
			JOINT LeftCollar
			{
				OFFSET 2.057500 0.117599 5.946301
				CHANNELS 6 Xposition Yposition Zposition Zrotation Xrotation Yrotation
				JOINT LeftShoulder
				{
					OFFSET 4.957699 0.000000 0.000000
					CHANNELS 6 Xposition Yposition Zposition Zrotation Xrotation Yrotation
					JOINT LeftElbow
					{
						OFFSET 0.000000 0.000000 -8.465500
						CHANNELS 6 Xposition Yposition Zposition Zrotation Xrotation Yrotation
						JOINT LeftWrist
						{
							OFFSET 0.000000 -0.000002 -14.594898
							CHANNELS 6 Xposition Yposition Zposition Zrotation Xrotation Yrotation
							End Site
							{
								OFFSET 0.000000 0.000000 -2.173901
							}
						}
					}
				}
			}
			JOINT RightCollar
			{
				OFFSET -3.048500 -0.728800 6.604099
				CHANNELS 6 Xposition Yposition Zposition Zrotation Xrotation Yrotation
				JOINT RightShoulder
				{
					OFFSET -3.710299 0.000000 0.000000
					CHANNELS 6 Xposition Yposition Zposition Zrotation Xrotation Yrotation
					JOINT RightElbow
					{
						OFFSET 0.000000 0.000000 -10.450901
						CHANNELS 6 Xposition Yposition Zposition Zrotation Xrotation Yrotation
						JOINT RightWrist
						{
							OFFSET 0.000000 0.000000 -12.539200
							CHANNELS 6 Xposition Yposition Zposition Zrotation Xrotation Yrotation
							End Site
							{
								OFFSET 0.000000 -0.000002 -2.173901
							}
						}
					}
				}
			}
		}
	}
	JOINT LeftHip
	{
		OFFSET 2.442599 -0.601400 -2.767502
		CHANNELS 6 Xposition Yposition Zposition Zrotation Xrotation Yrotation
		JOINT LeftKnee
		{
			OFFSET 0.000000 -0.000002 -17.033703
			CHANNELS 6 Xposition Yposition Zposition Zrotation Xrotation Yrotation
			JOINT LeftAnkle
			{
				OFFSET 0.000000 -0.000002 -19.318800
				CHANNELS 6 Xposition Yposition Zposition Zrotation Xrotation Yrotation
				End Site
				{
					OFFSET 0.000000 -8.281900 0.000000
				}
			}
		}
	}
	JOINT RightHip
	{
		OFFSET -3.126200 -0.601400 -2.283501
		CHANNELS 6 Xposition Yposition Zposition Zrotation Xrotation Yrotation
		JOINT RightKnee
		{
			OFFSET 0.000000 -0.000002 -16.919401
			CHANNELS 6 Xposition Yposition Zposition Zrotation Xrotation Yrotation
			JOINT RightAnkle
			{
				OFFSET 0.000000 -0.000002 -18.035900
				CHANNELS 6 Xposition Yposition Zposition Zrotation Xrotation Yrotation
				End Site
				{
					OFFSET 0.000000 -9.230099 0.000000
				}
			}
		}
	}
}
MOTION
Frames: 5
Frame Time: 0.041667
24.298300 41.814705 7.189400 -0.082678 -20.333022 4.546932 -0.128501 0.160403 6.566009 0.624306 31.451365 5.101960 -0.000000 -0.000003 3.554807 -9.241507 -7.815781 -2.702395 0.000001 -0.000002 8.267999 -16.835347 27.150197 15.170224 0.000001 0.000001 2.173896 0.577423 1.501164 -0.686229 2.057504 0.117598 5.946301 -24.979486 7.991328 6.788715 4.957700 -0.000002 0.000006 -39.262325 -2.894840 -69.962898 -0.000002 0.000008 -8.465503 -190.898774 -128.824840 -151.749222 -0.000006 -0.000001 -14.594894 -594.720854 3.756116 -319.983380 -3.048502 -0.728800 6.604095 32.638728 5.450779 -19.966361 -3.710294 0.000001 0.000004 19.522352 16.685030 72.512095 -0.000005 0.000006 -10.450898 369.330841 -73.019456 350.573365 0.000010 0.000003 -12.539197 415.348830 190.002489 -229.770678 2.442592 -0.601402 -2.767499 132.996924 -3.749394 87.682690 -0.000003 -0.000004 -17.033709 -184.779375 49.638451 164.309845 -0.000003 -0.000000 -19.318802 -136.992927 117.849996 399.953284 -3.126201 -0.601403 -2.283502 -111.574350 -40.018642 -73.381333 -0.000003 -0.000001 -16.919399 381.291103 -63.620180 -153.927015 0.000000 0.000000 -18.035898 211.083130 51.727376 -193.687294
24.277000 41.830704 7.186596 -0.041152 -20.366789 4.311506 -0.128502 0.160397 6.566006 0.515582 31.527508 5.032909 -0.000003 -0.000001 3.554806 -8.856324 -7.867473 -2.623522 -0.000000 0.000004 8.267994 -16.572462 27.522836 15.343139 0.000000 0.000002 2.173893 0.630427 1.656087 -0.562423 2.057503 0.117603 5.946301 -24.820559 8.018075 6.790873 4.957695 0.000002 0.000002 -39.123040 -2.170803 -70.356501 0.000001 0.000005 -8.465496 -190.462625 -127.932640 -150.745253 -0.000004 -0.000003 -14.594894 -594.348527 4.051961 -319.400819 -3.048504 -0.728796 6.604096 32.823362 5.671790 -19.841686 -3.710295 0.000004 -0.000001 19.672301 17.359389 73.253478 -0.000003 0.000009 -10.450900 370.188385 -73.831415 350.459493 0.000001 0.000001 -12.539197 414.541065 189.635940 -230.677618 2.442596 -0.601404 -2.767502 132.843505 -3.882754 87.462095 -0.000003 0.000001 -17.033707 -184.574838 49.768952 164.345662 -0.000004 0.000000 -19.318806 -137.061215 117.811324 399.971151 -3.126203 -0.601403 -2.283496 -111.810286 -39.954455 -73.636987 -0.000003 -0.000002 -16.919397 382.452235 -63.414857 -153.253818 0.000001 0.000001 -18.035896 211.464351 51.685688 -193.847326
24.255699 41.845909 7.183994 -0.001120 -20.396502 4.077548 -0.128502 0.160402 6.566008 0.407606 31.603664 4.967214 -0.000002 0.000004 3.554808 -8.480860 -7.917223 -2.546107 0.000003 -0.000007 8.268003 -16.255015 27.970398 15.505293 0.000003 0.000002 2.173899 0.627429 1.751238 -0.467792 2.057503 0.117598 5.946311 -24.668700 8.044826 6.793937 4.957704 0.000002 0.000005 -38.970887 -1.452452 -70.756675 0.000004 0.000007 -8.465496 -189.955538 -127.045466 -149.701819 -0.000005 0.000001 -14.594896 -593.988549 4.258684 -318.728319 -3.048500 -0.728808 6.604103 33.800328 5.653906 -19.829484 -3.710293 0.000004 0.000002 19.001655 17.952693 74.083251 -0.000002 0.000008 -10.450901 370.923832 -74.641209 350.215054 0.000004 0.000005 -12.539198 413.754282 189.286808 -231.516201 2.442593 -0.601393 -2.767503 132.704387 -4.148114 87.234309 -0.000000 0.000000 -17.033707 -184.292437 49.886001 164.419729 -0.000005 -0.000003 -19.318800 -137.163859 117.774031 399.993008 -3.126204 -0.601400 -2.283503 -112.259323 -39.616948 -73.998112 -0.000002 -0.000002 -16.919399 384.172596 -63.049032 -152.438211 -0.000001 -0.000001 -18.035896 212.060981 51.619728 -194.092106
24.234398 41.860703 7.181694 0.037932 -20.421678 3.844283 -0.128502 0.160403 6.566008 0.299496 31.678103 4.904748 -0.000003 0.000000 3.554808 -8.111536 -7.964465 -2.469395 0.000001 0.000005 8.267997 -15.932977 28.389977 15.662389 -0.000001 0.000004 2.173908 0.631042 1.876897 -0.377399 2.057502 0.117602 5.946307 -24.523270 8.070719 6.797949 4.957702 0.000001 0.000002 -38.811232 -0.739722 -71.166015 0.000002 0.000003 -8.465498 -189.370191 -126.169850 -148.618004 -0.000003 -0.000002 -14.594895 -594.024175 4.608926 -318.679415 -3.048498 -0.728801 6.604099 33.981950 5.875871 -19.711864 -3.710293 0.000000 0.000000 19.125530 18.676777 74.735889 -0.000002 0.000008 -10.450900 372.151736 -75.500925 350.626532 0.000008 0.000002 -12.539194 412.917775 189.095331 -230.750401 2.442595 -0.601400 -2.767497 132.578138 -4.356430 87.026282 -0.000003 -0.000001 -17.033707 -184.051837 49.985192 164.492060 -0.000003 -0.000002 -19.318800 -137.253744 117.738309 400.014837 -3.126202 -0.601397 -2.283495 -112.560192 -39.453932 -74.297971 -0.000003 -0.000003 -16.919397 385.468201 -62.782409 -151.695319 0.000000 -0.000001 -18.035898 212.424293 51.597943 -194.177702
24.213200 41.874802 7.179504 0.076997 -20.442138 3.610905 -0.128499 0.160394 6.566003 0.189809 31.749260 4.845724 -0.000001 -0.000004 3.554807 -7.744871 -8.009012 -2.392607 0.000002 -0.000004 8.267995 -15.642477 28.732659 15.724608 0.000001 0.000006 2.173908 0.662852 2.079839 -0.156578 2.057504 0.117594 5.946301 -24.383321 8.094430 6.802800 4.957703 0.000001 0.000003 -38.650924 -0.032866 -71.586659 0.000002 0.000006 -8.465498 -188.699795 -125.311719 -147.492976 0.000001 0.000002 -14.594901 -593.647476 4.839677 -317.340288 -3.048499 -0.728808 6.604101 34.164808 6.095472 -19.595627 -3.710290 0.000008 0.000001 19.256709 19.291890 75.459650 -0.000000 0.000008 -10.450899 373.163260 -76.342862 350.778790 0.000011 0.000002 -12.539198 412.131675 188.797398 -230.998200 2.442592 -0.601400 -2.767502 132.443187 -4.586888 86.820597 -0.000000 -0.000003 -17.033707 -183.798697 50.089691 164.576085 -0.000005 -0.000001 -19.318811 -137.350760 117.703571 400.038196 -3.126199 -0.601403 -2.283502 -112.864908 -39.284564 -74.598691 -0.000003 -0.000002 -16.919394 386.699520 -62.528893 -151.060166 -0.000002 -0.000002 -18.035900 212.814146 51.556839 -194.324264
